<svg width="41" height="39" viewBox="0 0 41 39" fill="none" xmlns="http://www.w3.org/2000/svg">
<path d="M41.7692 19.6154L45 22.8692L29.9308 38.0769L21.9231 30L25.1538 26.7462L29.9308 31.5462L41.7692 19.6154ZM16.1538 30L23.0769 36.9231H0V32.3077C0 27.2077 8.26154 23.0769 18.4615 23.0769L22.8231 23.3308L16.1538 30ZM18.4615 0C20.9097 0 23.2576 0.972524 24.9887 2.70363C26.7198 4.43473 27.6923 6.78262 27.6923 9.23077C27.6923 11.6789 26.7198 14.0268 24.9887 15.7579C23.2576 17.489 20.9097 18.4615 18.4615 18.4615C16.0134 18.4615 13.6655 17.489 11.9344 15.7579C10.2033 14.0268 9.23077 11.6789 9.23077 9.23077C9.23077 6.78262 10.2033 4.43473 11.9344 2.70363C13.6655 0.972524 16.0134 0 18.4615 0Z" fill="#D200A5"/>
</svg>
